<?xml version="1.0" standalone="no"?><!DOCTYPE svg PUBLIC "-//W3C//DTD SVG 1.1//EN" "http://www.w3.org/Graphics/SVG/1.1/DTD/svg11.dtd"><svg t="1581322515376" class="icon" viewBox="0 0 1024 1024" version="1.1" xmlns="http://www.w3.org/2000/svg" p-id="2022" xmlns:xlink="http://www.w3.org/1999/xlink" width="200" height="200"><defs><style type="text/css"></style></defs><path d="M724.959731 1023.088882c4.612031 0.209638 9.022487 0.419276 13.634519 0.419276 49.313256 0 90.442576-17.835337 122.759045-52.877099l0.838551-0.838551c11.538141-13.852219 24.551809-26.446612 38.395966-39.661855 9.441763-9.022487 19.093164-18.254613 28.115651-27.906013 43.01606-44.910863 42.814485-101.771079-0.419275-144.996776L808.677772 637.621448c-20.560628-21.407242-45.112437-32.735745-71.131711-32.735746-25.809636 0-50.571083 11.126928-71.760624 32.31647l-70.712436 70.712436c-6.297196-3.563842-12.80403-6.716472-19.101227-9.861039-7.974299-3.983118-15.319684-7.764661-21.818454-11.747779-64.842578-41.12932-123.597597-94.853032-179.836963-163.888365-28.325289-35.670674-46.999177-65.471491-60.222483-96.102795 18.464251-16.787148 35.678737-34.20321 52.248185-51.199996 6.087559-6.087559 12.175117-12.376692 18.46425-18.673889 44.910863-44.910863 44.910863-100.513252 0-145.214476l-59.375869-59.37587c-6.934173-6.92611-13.642582-13.852219-20.359054-20.560628-13.223306-13.432944-26.849762-27.494801-40.492343-40.081131-20.560628-20.560628-44.910863-31.268281-70.712435-31.268281-25.608061 0-50.369508 10.69959-71.768688 31.268281l-74.493978 74.284341C20.326842 192.770081 4.79752 225.925102 1.451379 264.321068c-3.781543 47.845792 5.031307 98.626512 27.696376 159.889121C64.181453 518.853583 116.848913 606.780505 194.914797 700.786923c95.054607 113.317282 209.202377 202.913244 339.71802 266.078719 49.732532 23.705195 116.252211 51.401571 190.326914 56.231303z m-490.391142-355.255405C160.292311 578.447153 110.55978 495.349963 77.614396 406.382915 57.24728 351.611014 49.70032 309.01423 52.85295 268.521886c2.306016-26.228911 12.376692-48.055429 31.260218-66.729317l74.074702-74.074703c11.328503-10.909227 23.705195-16.577511 35.880313-16.577511 11.965479 0 23.713258 5.668283 35.041761 16.787149 13.223306 12.384755 26.027337 25.398423 39.452217 39.024878 6.716472 6.934173 13.642582 14.061857 20.778329 20.987967l59.375869 59.383933c24.350234 24.342171 24.350234 48.265067 0 72.607238-6.289133 6.289133-12.58633 12.58633-18.673888 18.883526-18.464251 18.673888-35.670674 36.299588-54.763838 53.296374l-1.048189 1.048189c-16.996786 16.996786-14.481133 33.364659-10.280314 45.539776 0.209638 0.628913 0.419276 1.048189 0.628913 1.677102 15.319684 36.928501 36.928501 71.970262 70.083522 113.938133 59.803208 73.655427 122.750982 130.942982 192.415229 175.208805 8.603212 5.458645 17.625699 10.078739 26.446612 14.481132 7.966236 3.991181 15.319684 7.764661 21.818455 11.755842 0.838551 0.419276 1.467464 0.838551 2.306016 1.257827 6.716472 3.354204 13.223306 5.031307 19.939778 5.031306 16.577511 0 27.067462-10.481889 30.421667-14.053794l74.493978-74.493978c11.328503-11.328503 23.50362-17.206424 35.461037-17.206424 14.69077 0 26.648187 9.232125 34.412847 17.206424l120.025692 120.025691c29.381541 29.381541 15.948597 55.82009-0.628914 73.236152-8.385511 9.022487-17.206424 17.416062-26.438549 26.438549-14.061857 13.424881-28.54299 27.494801-41.758233 43.217634-22.657006 24.350234-49.522894 35.678737-84.564655 35.678738-3.354204 0-6.92611-0.209638-10.280314-0.419276-65.261853-4.192756-125.693974-29.591179-171.225687-51.199996-124.22651-59.803208-232.705997-144.787138-322.938935-252.645775zM562.554957 187.311436c68.196782 11.538141 130.297942 43.644973 180.038537 93.167867 49.305193 49.313256 81.621663 111.632117 93.167866 179.828899 2.515653 13.852219-6.934173 27.2771-20.987967 29.591179-1.467464 0.209638-2.934929 0.419276-4.402393 0.419275a25.664502 25.664502 0 0 1-25.398423-21.407242C775.111538 411.212647 747.834438 358.537123 706.076205 316.77889c-41.967871-41.758233-94.41763-69.035333-152.12446-78.896371-13.852219-2.306016-23.302045-15.529322-20.987967-29.591179 2.306016-13.844156 15.529322-23.285919 29.591179-20.979904z m434.562989 294.19437a25.664502 25.664502 0 0 1-25.39036-21.407242c-17.416062-102.190354-65.673066-195.358221-139.747769-269.432924C757.897052 116.599001 664.737248 68.333934 562.554957 50.917872c-13.852219-2.306016-23.302045-15.529322-20.987967-29.591179 2.306016-13.844156 15.529322-23.285919 29.591179-20.979904 112.881881 19.093164 215.499574 72.397601 297.330874 154.019264 81.629726 81.629726 134.9261 184.239356 154.019263 297.129299 2.523716 13.852219-6.918047 27.2771-20.979904 29.591179-1.467464 0.209638-2.934929 0.419276-4.410456 0.419275z" fill="#20A0FF" p-id="2023"></path></svg>