<?xml version="1.0" standalone="no"?><!DOCTYPE svg PUBLIC "-//W3C//DTD SVG 1.1//EN" "http://www.w3.org/Graphics/SVG/1.1/DTD/svg11.dtd"><svg t="1581385038372" class="icon" viewBox="0 0 1024 1024" version="1.1" xmlns="http://www.w3.org/2000/svg" p-id="3713" xmlns:xlink="http://www.w3.org/1999/xlink" width="200" height="200"><defs><style type="text/css"></style></defs><path d="M170.666667 426.666667h597.333333v170.666666H170.666667z" p-id="3714"></path><path d="M768 699.733333H170.666667c-66.030933 0-102.4-36.369067-102.4-102.4V426.666667c0-66.030933 36.369067-102.4 102.4-102.4h597.333333c60.535467 0 96.1536 30.5664 101.649067 86.528 21.0944 3.208533 39.697067 12.765867 55.483733 28.552533C945.425067 459.656533 955.733333 484.096 955.733333 512c0 28.023467-10.359467 52.258133-30.805333 72.004267-15.496533 16.0256-34.0992 25.890133-55.278933 29.166933C864.1536 669.149867 828.552533 699.733333 768 699.733333zM170.666667 358.4c-47.223467 0-68.266667 21.0432-68.266667 68.266667v170.666666c0 47.223467 21.0432 68.266667 68.266667 68.266667h597.333333c47.223467 0 68.266667-21.0432 68.266667-68.266667V426.666667c0-47.223467-21.0432-68.266667-68.266667-68.266667H170.666667z m699.733333 87.330133v132.4544c11.349333-2.935467 21.4016-8.994133 30.395733-18.312533C914.926933 546.2016 921.6 530.670933 921.6 512c0-18.7904-6.741333-34.645333-20.599467-48.520533-9.028267-9.045333-19.1488-14.916267-30.600533-17.749334z" p-id="3715"></path></svg>