<?xml version="1.0" standalone="no"?><!DOCTYPE svg PUBLIC "-//W3C//DTD SVG 1.1//EN" "http://www.w3.org/Graphics/SVG/1.1/DTD/svg11.dtd"><svg t="1581384811111" class="icon" viewBox="0 0 1024 1024" version="1.1" xmlns="http://www.w3.org/2000/svg" p-id="1986" xmlns:xlink="http://www.w3.org/1999/xlink" width="200" height="200"><defs><style type="text/css"></style></defs><path d="M835.567822 876.141793c88.520374-91.233838 137.20914-211.138243 137.20914-338.568672 0-121.337933-44.132193-235.917804-124.819359-325.359732l35.223839-35.223839 33.124744 33.073546c5.017349 5.017349 11.570621 7.474826 18.072696 7.474826s13.106545-2.508675 18.072696-7.474826c9.983501-9.983501 9.983501-26.213089 0-36.19659l-102.39488-102.39488c-9.983501-9.983501-26.213089-9.983501-36.19659 0s-9.983501 26.213089 0 36.19659l33.124744 33.073546-35.223839 35.223839c-89.441928-80.687166-204.021799-124.819359-325.359732-124.819359s-235.917804 44.132193-325.359732 124.819359l-35.223839-35.223839 33.073546-33.073546c9.983501-9.983501 9.983501-26.213089 0-36.19659s-26.213089-9.983501-36.19659 0l-102.39488 102.39488c-9.983501 9.983501-9.983501 26.213089 0 36.19659 5.017349 5.017349 11.570621 7.474826 18.123894 7.474826s13.106545-2.508675 18.123894-7.474826l33.073546-33.073546 35.223839 35.223839c-80.687166 89.441928-124.819359 204.021799-124.819359 325.359732 0 127.430428 48.688766 247.334833 137.20914 338.568672l-104.135593 104.135593c-9.983501 9.983501-9.983501 26.213089 0 36.19659 5.017349 5.017349 11.570621 7.526024 18.123894 7.526024s13.106545-2.508675 18.123894-7.526024l105.466727-105.415529c87.291635 73.109945 196.39338 112.941553 311.638818 112.941553s224.347183-39.831608 311.638818-112.941553l105.415529 105.415529c5.017349 5.017349 11.570621 7.526024 18.123894 7.526024s13.106545-2.508675 18.072696-7.526024c9.983501-9.983501 9.983501-26.213089 0-36.19659l-104.135593-104.135593zM51.223039 537.573121c0-239.962402 195.215839-435.178241 435.178241-435.178241s435.178241 195.215839 435.178241 435.178241c0 239.962402-195.215839 435.178241-435.178241 435.178241s-435.178241-195.215839-435.178241-435.178241z" p-id="1987"></path><path d="M774.59167 371.181441c-7.065247-12.236188-22.731663-16.434378-34.967852-9.369132l-251.891405 145.451927-196.342183-137.465127c-11.570621-8.089196-27.544223-5.273336-35.633418 6.297285s-5.273336 27.544223 6.297285 35.633418l209.704715 146.834258c0.051197 0.051197 0.102395 0.051197 0.102395 0.102395 0.460777 0.307185 0.921554 0.614369 1.382331 0.870356 0.102395 0.051197 0.20479 0.153592 0.307185 0.20479 0.460777 0.255987 0.921554 0.511974 1.382331 0.767962 0.102395 0.051197 0.20479 0.102395 0.307185 0.153592 0.511974 0.255987 1.023949 0.460777 1.587121 0.716764 0.307185 0.153592 0.665567 0.255987 0.972751 0.358382 0.20479 0.051197 0.40958 0.153592 0.665567 0.255987 0.358382 0.102395 0.716764 0.20479 1.075146 0.307185 0.20479 0.051197 0.40958 0.102395 0.614369 0.153592 0.358382 0.102395 0.716764 0.153592 1.126344 0.255987 0.20479 0.051197 0.40958 0.102395 0.614369 0.102395 0.358382 0.051197 0.716764 0.102395 1.075146 0.153592 0.255987 0.051197 0.511974 0.051197 0.767962 0.102395 0.307185 0.051197 0.614369 0.051197 0.921554 0.102395 0.460777 0.051197 0.921554 0.051197 1.382331 0.051197 0.102395 0 0.20479 0 0.307185 0 0 0 0 0 0 0s0 0 0.051197 0c0.972751 0 1.894305-0.051197 2.867057-0.153592 0.051197 0 0.102395 0 0.153592 0 0.921554-0.102395 1.843108-0.255987 2.764662-0.511974 0.102395 0 0.153592-0.051197 0.255987-0.051197 0.870356-0.20479 1.740713-0.460777 2.559872-0.767962 0.153592-0.051197 0.307185-0.102395 0.40958-0.153592 0.819159-0.307185 1.587121-0.614369 2.355082-1.023949 0.20479-0.102395 0.358382-0.20479 0.563172-0.307185 0.255987-0.153592 0.563172-0.255987 0.819159-0.40958l266.021899-153.59232c12.236188-7.065247 16.434378-22.731663 9.369132-34.967852z" p-id="1988"></path></svg>