<?xml version="1.0" standalone="no"?><!DOCTYPE svg PUBLIC "-//W3C//DTD SVG 1.1//EN" "http://www.w3.org/Graphics/SVG/1.1/DTD/svg11.dtd"><svg t="1581385028313" class="icon" viewBox="0 0 1024 1024" version="1.1" xmlns="http://www.w3.org/2000/svg" p-id="2906" xmlns:xlink="http://www.w3.org/1999/xlink" width="200" height="200"><defs><style type="text/css"></style></defs><path d="M817.954909 525.847273c-4.608 0-9.274182-1.361455-13.335273-4.224C718.510545 461.207273 617.332364 429.277091 512 429.277091c-105.320727 0-206.498909 31.941818-292.608 92.357818-10.530909 7.400727-25.041455 4.840727-32.418909-5.678545-7.377455-10.519273-4.840727-25.029818 5.678545-32.418909 93.975273-65.943273 204.404364-100.805818 319.336727-100.805818 114.944 0 225.373091 34.862545 319.336727 100.805818 10.519273 7.389091 13.067636 21.899636 5.678545 32.418909C832.500364 522.402909 825.285818 525.847273 817.954909 525.847273z" p-id="2907"></path><path d="M69.829818 389.632c-6.958545 0-13.847273-3.106909-18.432-9.041455-7.854545-10.170182-5.981091-24.785455 4.189091-32.64C187.473455 246.050909 345.297455 192.186182 512 192.186182c166.725818 0 324.549818 53.864727 456.413091 155.764364 10.170182 7.854545 12.043636 22.481455 4.189091 32.651636-7.877818 10.170182-22.493091 12.020364-32.651636 4.177455C816.302545 289.233455 668.334545 238.731636 512 238.731636c-156.311273 0-304.290909 50.501818-427.962182 146.048C79.802182 388.049455 74.798545 389.632 69.829818 389.632z" p-id="2908"></path><path d="M512 831.813818c-5.957818 0-11.904-2.269091-16.453818-6.818909l-57.088-57.076364c-9.088-9.088-9.088-23.819636 0-32.907636 9.076364-9.088 23.819636-9.088 32.907636 0L512 775.633455l40.704-40.704c9.088-9.088 23.819636-9.088 32.907636 0s9.088 23.819636 0 32.907636l-57.157818 57.157818C523.904 829.544727 517.957818 831.813818 512 831.813818z" p-id="2909"></path><path d="M679.912727 663.912727c-3.863273 0-7.784727-0.965818-11.392-3.002182-47.755636-26.891636-101.876364-41.099636-156.509091-41.099636-54.621091 0-108.741818 14.219636-156.497455 41.099636-11.205818 6.306909-25.402182 2.350545-31.697455-8.855273-6.306909-11.205818-2.338909-25.390545 8.855273-31.697455C387.374545 589.544727 449.396364 573.265455 512 573.265455c62.626909 0 124.637091 16.279273 179.351273 47.104 11.194182 6.306909 15.162182 20.491636 8.855273 31.697455C695.936 659.642182 688.046545 663.912727 679.912727 663.912727z" p-id="2910"></path></svg>