<?xml version="1.0" standalone="no"?><!DOCTYPE svg PUBLIC "-//W3C//DTD SVG 1.1//EN" "http://www.w3.org/Graphics/SVG/1.1/DTD/svg11.dtd"><svg t="1581385022649" class="icon" viewBox="0 0 1024 1024" version="1.1" xmlns="http://www.w3.org/2000/svg" p-id="2776" xmlns:xlink="http://www.w3.org/1999/xlink" width="200" height="200"><defs><style type="text/css"></style></defs><path d="M146.285714 822.857143l0 109.714286q0 8-5.142857 13.142857t-13.142857 5.142857l-109.714286 0q-8 0-13.142857-5.142857t-5.142857-13.142857l0-109.714286q0-8 5.142857-13.142857t13.142857-5.142857l109.714286 0q8 0 13.142857 5.142857t5.142857 13.142857zm219.428571-73.142857l0 182.857143q0 8-5.142857 13.142857t-13.142857 5.142857l-109.714286 0q-8 0-13.142857-5.142857t-5.142857-13.142857l0-182.857143q0-8 5.142857-13.142857t13.142857-5.142857l109.714286 0q8 0 13.142857 5.142857t5.142857 13.142857zm219.428571-146.285714l0 329.142857q0 8-5.142857 13.142857t-13.142857 5.142857l-109.714286 0q-8 0-13.142857-5.142857t-5.142857-13.142857l0-329.142857q0-8 5.142857-13.142857t13.142857-5.142857l109.714286 0q8 0 13.142857 5.142857t5.142857 13.142857zm219.428571-219.428571l0 548.571429q0 8-5.142857 13.142857t-13.142857 5.142857l-109.714286 0q-8 0-13.142857-5.142857t-5.142857-13.142857l0-548.571429q0-8 5.142857-13.142857t13.142857-5.142857l109.714286 0q8 0 13.142857 5.142857t5.142857 13.142857zm219.428571-292.571429l0 841.142857q0 8-5.142857 13.142857t-13.142857 5.142857l-109.714286 0q-8 0-13.142857-5.142857t-5.142857-13.142857l0-841.142857q0-8 5.142857-13.142857t13.142857-5.142857l109.714286 0q8 0 13.142857 5.142857t5.142857 13.142857z" p-id="2777"></path></svg>