<?xml version="1.0" standalone="no"?><!DOCTYPE svg PUBLIC "-//W3C//DTD SVG 1.1//EN" "http://www.w3.org/Graphics/SVG/1.1/DTD/svg11.dtd"><svg t="1581389606639" class="icon" viewBox="0 0 1024 1024" version="1.1" xmlns="http://www.w3.org/2000/svg" p-id="6051" xmlns:xlink="http://www.w3.org/1999/xlink" width="200" height="200"><defs><style type="text/css"></style></defs><path d="M512 884.3361c-65.406662 0-127.142725-13.488199-182.684716-37.021172l-145.736199 73.129554c-10.091846 5.613858-21.704324 6.557346-32.321126 3.541663-0.042979-0.01228-0.086981-0.010233-0.132006-0.020466-20.48966-5.311982-33.643238-23.857361-32.310893-43.586704 0.151449-4.579295 1.168616-9.012258 2.784416-13.233396l40.241516-144.048767c-52.792367-64.949244-84.212984-144.935973-84.212984-231.764528 0-217.050408 194.477296-393.003815 434.373015-393.003815 239.897765 0 434.373015 175.954431 434.373015 393.003815C946.373015 708.383716 751.897765 884.3361 512 884.3361zM512 181.065845c-194.202027 0-351.635639 138.912793-351.635639 310.266439 0 75.225285 30.368658 144.174634 80.84119 197.885929l-0.014326 0.058328c9.53926 10.288321 13.730723 24.847921 9.759271 39.194674l-20.142759 72.098062 72.453149-36.354999c13.289678-7.394411 29.150924-6.54916 41.970904 0.633427l0.388856-0.171915c49.541323 23.526833 106.177228 36.923958 166.379355 36.923958 194.204074 0 351.635639-138.910747 351.635639-310.266439C863.634616 319.978638 706.204074 181.065845 512 181.065845zM646.448108 470.647173c-28.559453 0-51.710732-23.150256-51.710732-51.710732 0-28.559453 23.152303-51.710732 51.710732-51.710732 28.561499 0 51.712779 23.152303 51.712779 51.710732C698.16191 447.49794 675.009607 470.647173 646.448108 470.647173zM377.550869 470.647173c-28.557406 0-51.710732-23.150256-51.710732-51.710732 0-28.559453 23.154349-51.710732 51.710732-51.710732 28.561499 0 51.710732 23.152303 51.710732 51.710732C429.262624 447.49794 406.112368 470.647173 377.550869 470.647173z" p-id="6052"></path></svg>