<?xml version="1.0" standalone="no"?><!DOCTYPE svg PUBLIC "-//W3C//DTD SVG 1.1//EN" "http://www.w3.org/Graphics/SVG/1.1/DTD/svg11.dtd"><svg t="1580978294768" class="icon" viewBox="0 0 1024 1024" version="1.1" xmlns="http://www.w3.org/2000/svg" p-id="2180" xmlns:xlink="http://www.w3.org/1999/xlink" width="200" height="200"><defs><style type="text/css"></style></defs><path d="M849 305H735a6 6 0 0 1-6-6v-50c0-23.196-18.804-42-42-42H335c-23.196 0-42 18.804-42 42v50a6 6 0 0 1-6 6H177c-23.196 0-42 18.804-42 42v432c0 23.196 18.804 42 42 42h672c23.196 0 42-18.804 42-42V347c0-23.196-18.804-42-42-42z m-14 418c0 23.196-18.804 42-42 42H233c-23.196 0-42-18.804-42-42V403c0-23.196 18.804-42 42-42h110a6 6 0 0 0 6-6v-50c0-23.196 18.804-42 42-42h240c23.196 0 42 18.804 42 42v50a6 6 0 0 0 6 6h114c23.196 0 42 18.804 42 42v320z" p-id="2181"></path><path d="M513 383c-88.776 0-161 72.224-161 161 0 88.775 72.224 161 161 161 88.775 0 161-72.225 161-161 0-88.776-72.225-161-161-161z m0 266c-57.897 0-105-47.103-105-105s47.103-105 105-105 105 47.103 105 105-47.103 105-105 105z" p-id="2182"></path></svg>